<?xml version="1.0" encoding="UTF-8" standalone="no"?>
<svg
   xmlns:dc="http://purl.org/dc/elements/1.1/"
   xmlns:cc="http://creativecommons.org/ns#"
   xmlns:rdf="http://www.w3.org/1999/02/22-rdf-syntax-ns#"
   xmlns:svg="http://www.w3.org/2000/svg"
   xmlns="http://www.w3.org/2000/svg"
   xmlns:sodipodi="http://sodipodi.sourceforge.net/DTD/sodipodi-0.dtd"
   xmlns:inkscape="http://www.inkscape.org/namespaces/inkscape"
   version="1.0"
   width="3270.9766"
   height="246.90309"
   viewBox="0 0 661.85377 69.141821"
   id="svg2"
   xml:space="preserve"
   sodipodi:docname="frisePsi_original.svg"
   inkscape:version="1.0.1 (3bc2e813f5, 2020-09-07)"><metadata
   id="metadata8"><rdf:RDF><cc:Work
       rdf:about=""><dc:format>image/svg+xml</dc:format><dc:type
         rdf:resource="http://purl.org/dc/dcmitype/StillImage" /><dc:title></dc:title></cc:Work></rdf:RDF></metadata><sodipodi:namedview
   pagecolor="#ffffff"
   bordercolor="#666666"
   borderopacity="1"
   objecttolerance="10"
   gridtolerance="10"
   guidetolerance="10"
   inkscape:pageopacity="0"
   inkscape:pageshadow="2"
   inkscape:window-width="1920"
   inkscape:window-height="1001"
   id="namedview6"
   showgrid="false"
   inkscape:zoom="0.27668839"
   inkscape:cx="1874.7856"
   inkscape:cy="-145.24628"
   inkscape:window-x="-9"
   inkscape:window-y="-9"
   inkscape:window-maximized="1"
   inkscape:current-layer="svg2"
   inkscape:pagecheckerboard="true"
   fit-margin-top="0"
   fit-margin-left="0"
   fit-margin-right="0"
   fit-margin-bottom="0" />
 <defs
   id="defs4">
  <style
   type="text/css"
   id="style6" />
 
  
  
 </defs>
 <path
   d="m 503.81917,34.09767 v -0.18462 c -0.002,-4.33505 0.0411,-8.78282 0.12239,-10.92273 4.10871,5.47217 7.76871,12.76831 10.95448,1.59165 3.44402,-12.08293 32.64984,-9.798 36.58173,-18.6017 0.82915,-1.85687 0.0919,-3.9751 0.14195,-5.91352 15.49571,17.07718 -16.95521,18.54973 -27.5274,24.85435 -2.93373,1.74953 -3.81772,3.22973 -4.32465,6.15313 14.38958,-0.16138 28.78422,-0.11305 43.1688,-0.48426 5.14648,-0.13257 7.95317,-3.61041 10.75798,-6.88899 0.10871,-0.127 0.11976,5.07714 0.0962,10.30437 0.0236,5.22722 0.0125,10.4314 -0.0962,10.30437 -2.80481,-3.27855 -5.6115,-6.75638 -10.75798,-6.889 -14.38462,-0.37117 -28.77926,-0.32284 -43.1688,-0.48425 0.50693,2.92343 1.39092,4.40359 4.32465,6.15317 10.57219,6.30461 43.02295,7.77716 27.5274,24.8543 -0.05,-1.93842 0.6872,-4.05661 -0.14195,-5.91352 -3.93189,-8.80366 -33.13771,-6.51873 -36.58173,-18.6017 -3.18577,-11.17666 -6.84577,-3.88052 -10.95448,1.59168 -0.0813,-2.13993 -0.12501,-6.58767 -0.12239,-10.92273 z"
   style="fill:#ffffff;fill-opacity:1;fill-rule:nonzero;stroke-width:0.25"
   id="path10" />
<path
   d="m 445.57189,34.09767 v 0.18462 c 0.002,4.33505 -0.0411,8.78282 -0.12239,10.92273 -4.10871,-5.47217 -7.76871,-12.76831 -10.95448,-1.59165 -3.44402,12.08293 -32.64975,9.798 -36.58164,18.6017 -0.82915,1.85687 -0.0919,3.9751 -0.14195,5.91352 -15.49571,-17.07718 16.95514,-18.54973 27.52731,-24.85435 2.93373,-1.74953 3.81772,-3.22973 4.32465,-6.15313 -14.38957,0.16138 -28.78413,0.11305 -43.16871,0.48426 -5.14648,0.13257 -7.95317,3.61041 -10.75798,6.88899 -0.10871,0.127 -0.11976,-5.07714 -0.0962,-10.30437 -0.0236,-5.22722 -0.0125,-10.4314 0.0962,-10.30437 2.80481,3.27855 5.6115,6.75638 10.75798,6.889 14.38462,0.37117 28.77918,0.32284 43.16871,0.48425 -0.50693,-2.92343 -1.39092,-4.40359 -4.32465,-6.15317 -10.57217,-6.30461 -43.02286,-7.77716 -27.52731,-24.8543 0.05,1.93842 -0.6872,4.05661 0.14195,5.91352 3.93189,8.80366 33.13762,6.51873 36.58164,18.6017 3.18577,11.17666 6.84577,3.88052 10.95448,-1.59168 0.0813,2.13993 0.12501,6.58767 0.12239,10.92273 z"
   style="fill:#ffffff;fill-opacity:1;fill-rule:nonzero;stroke-width:0.25"
   id="path10-6" /><circle
   style="fill:#ffffff;fill-opacity:0;fill-rule:evenodd;stroke:#ffffff;stroke-width:5.60073;stroke-miterlimit:4;stroke-dasharray:5.60073, 5.60073;stroke-dashoffset:0;stroke-opacity:1"
   id="path848"
   cx="473.64938"
   cy="32.810844"
   r="19.402212" /><path
   d="M 718.94118,34.03092 V 33.8463 c -0.002,-4.33505 0.0411,-8.78282 0.12239,-10.92273 4.10871,5.47217 7.76871,12.76831 10.95448,1.59165 3.44402,-12.08293 32.64984,-9.798 36.58173,-18.6017 0.82915,-1.85687 0.0919,-3.9751 0.14195,-5.91352 15.49571,17.07718 -16.95521,18.54973 -27.5274,24.85435 -2.93373,1.74953 -3.81772,3.22973 -4.32465,6.15313 14.38958,-0.16138 28.78422,-0.11305 43.1688,-0.48426 5.14648,-0.13257 7.95317,-3.61041 10.75798,-6.88899 0.10871,-0.127 0.11976,5.07714 0.0962,10.30437 0.0236,5.22722 0.0125,10.4314 -0.0962,10.30437 -2.80481,-3.27855 -5.6115,-6.75638 -10.75798,-6.889 -14.38462,-0.37117 -28.77926,-0.32284 -43.1688,-0.48425 0.50693,2.92343 1.39092,4.40359 4.32465,6.15317 10.57219,6.30461 43.02295,7.77716 27.5274,24.8543 -0.05,-1.93842 0.6872,-4.05661 -0.14195,-5.91352 -3.93189,-8.80366 -33.13771,-6.51873 -36.58173,-18.6017 -3.18577,-11.17666 -6.84577,-3.88052 -10.95448,1.59168 -0.0813,-2.13993 -0.12501,-6.58767 -0.12239,-10.92273 z"
   style="fill:#ffffff;fill-opacity:1;fill-rule:nonzero;stroke-width:0.25"
   id="path10-9" /><path
   d="m 660.69375,34.03092 v 0.18462 c 0.002,4.33505 -0.0411,8.78282 -0.12239,10.92273 -4.10874,-5.47217 -7.76875,-12.76831 -10.95454,-1.59165 -3.44404,12.08293 -32.64993,9.798 -36.58182,18.6017 -0.82915,1.85687 -0.0919,3.9751 -0.14195,5.91352 -15.49571,-17.07718 16.95521,-18.54973 27.52744,-24.85435 2.93374,-1.74953 3.81774,-3.22973 4.32467,-6.15313 -14.38964,0.16138 -28.78428,0.11305 -43.16886,0.48426 -5.14648,0.13257 -7.95317,3.61041 -10.75797,6.88899 -0.10871,0.127 -0.11976,-5.07714 -0.0962,-10.30437 -0.0236,-5.22722 -0.0125,-10.4314 0.0962,-10.30437 2.8048,3.27855 5.61149,6.75638 10.75797,6.889 14.38462,0.37117 28.77926,0.32284 43.16886,0.48425 -0.50693,-2.92343 -1.39093,-4.40359 -4.32467,-6.15317 -10.57223,-6.30461 -43.02299,-7.77716 -27.52744,-24.8543 0.05,1.93842 -0.6872,4.05661 0.14195,5.91352 3.93189,8.80366 33.13778,6.51873 36.58182,18.6017 3.18579,11.17666 6.8458,3.88052 10.95454,-1.59168 0.0813,2.13993 0.12501,6.58767 0.12239,10.92273 z"
   style="fill:#ffffff;fill-opacity:1;fill-rule:nonzero;stroke-width:0.25"
   id="path10-6-0" /><circle
   style="fill:#ffffff;fill-opacity:0;fill-rule:evenodd;stroke:#ffffff;stroke-width:5.60073;stroke-miterlimit:4;stroke-dasharray:5.60073, 5.60073;stroke-dashoffset:0;stroke-opacity:1"
   id="path848-4"
   cx="688.76929"
   cy="32.744118"
   r="19.402212" /><path
   d="M 216.04835,34.53312 V 34.3485 c -0.002,-4.33505 0.0411,-8.78282 0.12239,-10.92273 4.10871,5.47217 7.76871,12.76831 10.95448,1.59165 3.44402,-12.08293 32.64984,-9.798 36.58173,-18.6017 0.82915,-1.85687 0.0919,-3.9751 0.14195,-5.91352 15.49571,17.07718 -16.95521,18.54973 -27.5274,24.85435 -2.93373,1.74953 -3.81772,3.22973 -4.32465,6.15313 14.38958,-0.16138 28.78422,-0.11305 43.1688,-0.48426 5.14648,-0.13257 7.95317,-3.61041 10.75798,-6.88899 0.10871,-0.127 0.11976,5.07714 0.0962,10.30437 0.0236,5.22722 0.0125,10.4314 -0.0962,10.30437 -2.80481,-3.27855 -5.6115,-6.75638 -10.75798,-6.889 -14.38462,-0.37117 -28.77926,-0.32284 -43.1688,-0.48425 0.50693,2.92343 1.39092,4.40359 4.32465,6.15317 10.57219,6.30461 43.02295,7.77716 27.5274,24.8543 -0.05,-1.93842 0.6872,-4.05661 -0.14195,-5.91352 -3.93189,-8.80366 -33.13771,-6.51873 -36.58173,-18.6017 -3.18577,-11.17666 -6.84577,-3.88052 -10.95448,1.59168 -0.0813,-2.13993 -0.12501,-6.58767 -0.12239,-10.92273 z"
   style="fill:#ffffff;fill-opacity:1;fill-rule:nonzero;stroke-width:0.25"
   id="path10-9-5" /><path
   d="m 157.80098,34.53312 v 0.18462 c 0.002,4.33505 -0.0411,8.78282 -0.12239,10.92273 -4.10875,-5.47217 -7.76876,-12.76831 -10.95455,-1.59165 -3.44404,12.08293 -32.64993,9.798 -36.58182,18.6017 -0.82915,1.85687 -0.0919,3.9751 -0.14195,5.91352 -15.495727,-17.07718 16.95521,-18.54973 27.52744,-24.85435 2.93374,-1.74953 3.81774,-3.22973 4.32467,-6.15313 -14.38964,0.16138 -28.78428,0.11305 -43.168877,0.48426 -5.14648,0.13257 -7.95317,3.61041 -10.75797,6.88899 -0.10871,0.127 -0.11976,-5.07714 -0.0962,-10.30437 -0.0236,-5.22722 -0.0125,-10.4314 0.0962,-10.30437 2.8048,3.27855 5.61149,6.75638 10.75797,6.889 14.384637,0.37117 28.779277,0.32284 43.168877,0.48425 -0.50693,-2.92343 -1.39093,-4.40359 -4.32467,-6.15317 -10.57223,-6.30461 -43.023007,-7.77716 -27.52744,-24.8543 0.05,1.93842 -0.6872,4.05661 0.14195,5.91352 3.93189,8.80366 33.13778,6.51873 36.58182,18.6017 3.18579,11.17666 6.8458,3.88052 10.95455,-1.59168 0.0813,2.13993 0.12501,6.58767 0.12239,10.92273 z"
   style="fill:#ffffff;fill-opacity:1;fill-rule:nonzero;stroke-width:0.25"
   id="path10-6-0-5" /><circle
   style="fill:#ffffff;fill-opacity:0;fill-rule:evenodd;stroke:#ffffff;stroke-width:5.60072542;stroke-miterlimit:10;stroke-dasharray:5.60072542, 5.60072541999999984;stroke-dashoffset:0;stroke-opacity:1;stroke-linejoin:miter;stroke-linecap:butt;paint-order:markers stroke fill"
   id="path848-4-2"
   cx="185.87796"
   cy="33.246315"
   r="19.402212" /><path
   d="m 1.1601298,35.1109 v -0.18462 c -0.002,-4.33505 0.0411,-8.78282 0.12239,-10.92273 4.10871,5.47216 7.76871,12.76831 10.9544812,1.59165 3.444032,-12.08293 32.649852,-9.798 36.581742,-18.6017 0.82915,-1.85688 0.0919,-3.9751 0.14195,-5.91352 15.49571,17.07718 -16.95521,18.54973 -27.5274,24.85435 -2.93373,1.74953 -3.81772,3.22972 -4.32465,6.15313 14.38958,-0.16139 28.78422,-0.11305 43.1688,-0.48426 5.14648,-0.13257 7.95317,-3.61041 10.75798,-6.88899 0.10871,-0.127 0.11976,5.07714 0.0962,10.30437 0.0236,5.22721 0.0125,10.4314 -0.0962,10.30436 -2.80481,-3.27854 -5.6115,-6.75637 -10.75798,-6.88899 -14.38462,-0.37117 -28.77926,-0.32284 -43.1688,-0.48425 0.50693,2.92343 1.39092,4.40359 4.32465,6.15317 10.57219,6.30461 43.02295,7.77716 27.5274,24.8543 -0.05,-1.93842 0.6872,-4.05661 -0.14195,-5.91352 C 44.886853,54.23999 15.681033,56.52492 12.237001,44.44195 9.0512298,33.26529 5.3912298,40.56143 1.2825198,46.03363 1.2012198,43.8937 1.1575098,39.44596 1.1601298,35.1109 Z"
   style="fill:#ffffff;fill-opacity:1;fill-rule:nonzero;stroke-width:0.25"
   id="path10-9-5-4" /><path
   d="m -57.087239,35.1109 v 0.18462 c 0.002,4.33505 -0.0411,8.78281 -0.12239,10.92273 -4.10876,-5.47218 -7.76877,-12.76831 -10.95456,-1.59165 -3.44404,12.08292 -32.649911,9.79799 -36.581801,18.6017 -0.82915,1.85687 -0.0919,3.97509 -0.14195,5.91352 -15.49571,-17.07718 16.955201,-18.54973 27.527421,-24.85435 2.93375,-1.74953 3.81774,-3.22974 4.32467,-6.15313 -14.38964,0.16137 -28.784261,0.11305 -43.168841,0.48426 -5.14648,0.13257 -7.95317,3.61041 -10.75797,6.88898 -0.10871,0.12701 -0.11976,-5.07713 -0.0962,-10.30436 -0.0236,-5.22723 -0.0125,-10.4314 0.0962,-10.30437 2.8048,3.27855 5.61149,6.75638 10.75797,6.889 14.38462,0.37117 28.779251,0.32284 43.168841,0.48425 -0.50693,-2.92343 -1.39092,-4.40359 -4.32467,-6.15317 -10.57222,-6.30461 -43.022971,-7.77716 -27.527421,-24.8543 0.05,1.93842 -0.6872,4.0566 0.14195,5.91352 3.93189,8.80366 33.137761,6.51873 36.581801,18.6017 3.18579,11.17666 6.8458,3.88052 10.95456,-1.59168 0.0813,2.13993 0.125,6.58767 0.12239,10.92273 z"
   style="fill:#ffffff;fill-opacity:1;fill-rule:nonzero;stroke-width:0.25"
   id="path10-6-0-5-0" /><circle
   style="fill:#ffffff;fill-opacity:0;fill-rule:evenodd;stroke:#ffffff;stroke-width:5.60073;stroke-miterlimit:4;stroke-dasharray:5.60073, 5.60073;stroke-dashoffset:0;stroke-opacity:1"
   id="path848-4-2-5"
   cx="-29.00942"
   cy="33.824104"
   r="19.402212" /><path
   style="fill:none;stroke:#ffffff;stroke-width:5.582;stroke-linecap:butt;stroke-linejoin:miter;stroke-miterlimit:4;stroke-dasharray:none;stroke-opacity:1"
   d="M 294.09816,8.82798 V 64.83524"
   id="path923" /><path
   style="fill:none;stroke:#ffffff;stroke-width:5.58199;stroke-linecap:butt;stroke-linejoin:miter;stroke-miterlimit:4;stroke-dasharray:none;stroke-opacity:1"
   d="M 79.354273,9.07375 V 65.08101"
   id="path923-8" /><path
   style="fill:none;stroke:#ffffff;stroke-width:5.58199;stroke-linecap:butt;stroke-linejoin:miter;stroke-miterlimit:4;stroke-dasharray:none;stroke-opacity:1"
   d="M 581.85258,10.24158 V 66.24884"
   id="path923-3" /><path
   style="fill:none;stroke:#ffffff;stroke-width:5.58199;stroke-linecap:butt;stroke-linejoin:miter;stroke-miterlimit:4;stroke-dasharray:none;stroke-opacity:1"
   d="M 367.81706,9.03308 V 65.04034"
   id="path923-31" /><path
   d="m 349.63767,27.30679 h -1.01185 q -0.10938,-1.94166 -1.14858,-2.70738 -1.0392,-0.76573 -3.30902,-0.76573 h -7.46582 l 0.0547,1.83227 q 4.34822,0.87512 7.93072,4.84047 3.58249,3.96536 3.58249,10.00911 0,6.70009 -4.9772,11.43117 -5.00456,4.73108 -13.04466,4.73108 -7.79398,0 -12.74384,-4.48495 -4.94986,-4.45761 -4.94986,-11.43117 0,-5.66089 3.09025,-9.62625 3.06289,-3.93801 8.31357,-5.46946 l 0.27348,-1.83227 h -7.60255 q -2.598,0 -3.41841,0.98451 -0.84777,0.9845 -0.90246,2.4886 h -1.01185 v -8.5597 h 15.31448 l -0.71103,8.25888 q -7.0556,2.21513 -7.0556,13.04466 0,7.08295 3.47311,10.85687 3.44576,3.77393 8.0948,3.77393 4.94986,0 8.20418,-4.02005 3.22699,-3.99271 3.22699,-10.22789 0,-4.5123 -1.44941,-8.23153 -1.44941,-3.69189 -5.5515,-5.19599 l -0.5196,-8.25888 h 15.31448 z"
   style="font-style:normal;font-weight:normal;font-size:400px;line-height:1.25;font-family:'Times New Roman';text-align:center;text-anchor:middle;fill:#ffffff;fill-opacity:1;stroke:none;stroke-width:0.140018px;stroke-linecap:butt;stroke-linejoin:miter;stroke-opacity:1"
   id="path814" /></svg>
