<?xml version="1.0" encoding="UTF-8" standalone="no"?>
<svg
   xmlns:dc="http://purl.org/dc/elements/1.1/"
   xmlns:cc="http://creativecommons.org/ns#"
   xmlns:rdf="http://www.w3.org/1999/02/22-rdf-syntax-ns#"
   xmlns:svg="http://www.w3.org/2000/svg"
   xmlns="http://www.w3.org/2000/svg"
   xmlns:sodipodi="http://sodipodi.sourceforge.net/DTD/sodipodi-0.dtd"
   xmlns:inkscape="http://www.inkscape.org/namespaces/inkscape"
   width="714.86786"
   height="170.53616"
   style="overflow:visible"
   viewBox="0 0 714.86786 170.53616"
   data-svgdocument=""
   id="_uJ5I_tUFYVnVFEfYSV-d8"
   class="fl-svgdocument"
   x="0"
   y="0"
   overflow="hidden"
   data-bbox="10.993298530578613 169.25086975097656 477.0893933072148 170.5361628927103"
   version="1.1"
   sodipodi:docname="logo_text_black.svg"
   inkscape:version="1.0.1 (3bc2e813f5, 2020-09-07)">
  <metadata
     id="metadata9">
    <rdf:RDF>
      <cc:Work
         rdf:about="">
        <dc:format>image/svg+xml</dc:format>
        <dc:type
           rdf:resource="http://purl.org/dc/dcmitype/StillImage" />
        <dc:title></dc:title>
      </cc:Work>
    </rdf:RDF>
  </metadata>
  <sodipodi:namedview
     pagecolor="#ffffff"
     bordercolor="#666666"
     borderopacity="1"
     objecttolerance="10"
     gridtolerance="10"
     guidetolerance="10"
     inkscape:pageopacity="0"
     inkscape:pageshadow="2"
     inkscape:window-width="1920"
     inkscape:window-height="1001"
     id="namedview7"
     showgrid="false"
     fit-margin-top="0"
     fit-margin-left="0"
     fit-margin-right="0"
     fit-margin-bottom="0"
     inkscape:pagecheckerboard="true"
     inkscape:zoom="0.81054688"
     inkscape:cx="311.81718"
     inkscape:cy="81.147905"
     inkscape:window-x="-9"
     inkscape:window-y="-9"
     inkscape:window-maximized="1"
     inkscape:current-layer="_uJ5I_tUFYVnVFEfYSV-d8"
     inkscape:document-rotation="0" />
  <defs
     id="_6IjzfRJdCBi-VJOKglGk0"
     transform="matrix(0.4133571684360504, 0, 0, 0.4133571684360504, -12.905353546142578, 200.09933471679688)"
     data-uid="o_en9i1a846_4" />
  <path
     id="_9ZgkZTErfvr9fOA1ypRHl"
     fill="#b3dadf"
     data-type="circle"
     data-cx="88.385"
     data-cy="88.385"
     data-r="88.385"
     d="M 85.26808,85.26808 M 0,85.26808 a 85.26808,85.26808 0 1 0 170.53616,0 85.26808,85.26808 0 1 0 -170.53616,0"
     data-uid="o_en9i1a846_5"
     style="stroke-width:0.964735" />
  <path
     text="coding pool"
     text-anchor="start"
     font-size="100px"
     letter-spacing="0"
     side="left"
     offset="0"
     dx="0"
     dy="0"
     space="preserve"
     href=""
     font-family="Salsa"
     font-scale="contain"
     x="0"
     y="0"
     fill="#4c585f"
     font-weight="400"
     font-style="normal"
     data-fl-textpath=""
     id="_R6mCzjP9sfLSIxQEO2S0W"
     data-uid="o_en9i1a846_6"
     d="m 237.19372,111.30855 v 0 q -10.63486,0 -16.30017,-5.66529 -5.66528,-5.665295 -5.66528,-16.300154 v 0 q 0,-12.920851 7.25556,-21.816366 7.25553,-8.895513 19.28187,-8.895513 v 0 q 6.858,0 11.13183,2.733258 4.27385,2.733261 4.27385,8.100384 v 0 q 0,3.478692 -2.78298,6.211948 -2.78295,2.73326 -6.26166,2.73326 v 0 q -0.79511,0 -1.9878,-0.198787 v 0 q 0.29835,-1.292088 0.29835,-2.285998 v 0 q 0,-3.578083 -1.88846,-6.062863 -1.88843,-2.484779 -6.26163,-2.484779 -4.37323,0 -8.15009,3.578081 v 0 q -2.68357,6.957387 -2.68357,17.39346 v 0 q 0,14.212939 10.73426,14.212939 v 0 q 5.76469,0 8.59733,-3.72717 2.83263,-3.727167 2.83263,-8.398553 v 0 q 3.37933,0 5.86412,1.689647 2.48477,1.689654 2.48477,4.67139 v 0 q 0,6.460426 -6.6095,10.485766 -6.60952,4.02534 -14.16325,4.02534 z m 47.6084,0 q -10.93305,0 -16.10139,-6.41072 -5.16834,-6.41073 -5.16834,-17.890415 0,-11.479684 6.858,-19.927935 6.85796,-8.448253 17.59221,-8.448253 v 0 q 22.06485,0 22.06485,24.847801 v 0 q 0,11.62877 -7.15614,19.729152 -7.1562,8.10037 -18.08919,8.10037 z m -7.1562,-41.744289 v 0 q -1.78903,5.764689 -1.78903,11.529377 0,5.76469 0.39757,8.945209 0.39758,3.180518 1.49087,6.361033 v 0 q 2.28598,6.46043 8.99491,6.46043 6.7089,0 8.84582,-3.578085 2.13691,-3.578081 2.13691,-11.032418 v 0 q 0,-21.170326 -10.03854,-21.170326 v 0 q -5.76468,0 -10.03851,2.48478 z m 71.76045,-32.799095 v 0 q 3.18053,-1.192695 6.5598,-1.192695 3.37935,0 5.56595,2.236302 2.18656,2.236302 2.18656,5.565908 0,3.329604 -0.99388,15.703807 -0.9939,12.374207 -0.9939,24.350844 0,11.976641 2.38536,25.493848 v 0 q -3.57806,1.19269 -7.45431,1.19269 v 0 q -6.55983,0 -6.55983,-9.24338 v 0 q 0,-3.081131 1.29208,-11.032426 v 0 q -4.17442,8.845816 -7.40464,13.119636 -3.23021,4.27382 -6.26163,6.01317 -3.03147,1.73934 -6.41075,1.73934 v 0 q -7.55373,0 -11.57908,-5.5659 -4.02533,-5.565911 -4.02533,-13.715988 0,-8.150079 2.93202,-15.355935 2.93202,-7.205867 8.84582,-12.026339 5.91376,-4.820472 12.57297,-4.820472 6.65922,0 11.5294,1.789041 v 0 q -0.19867,-12.821464 -2.18661,-24.251451 z m 2.18661,32.699703 v 0 q -4.87017,-1.789042 -10.53546,-1.789042 -5.6653,0 -9.74034,3.27991 v 0 q -3.3793,8.050688 -3.3793,17.989806 v 0 q 0,4.571996 1.29208,8.746427 1.29209,4.17443 4.27382,4.17443 v 0 q 4.57201,0 10.38637,-10.237294 5.81439,-10.237293 7.70283,-22.164237 z m 22.16424,-8.746426 v 0 q 3.18051,-0.894519 6.41073,-0.894519 3.23021,0 5.51624,1.987827 2.28597,1.987821 2.28597,5.118642 0,3.130824 -1.04361,10.833639 -1.0436,7.702821 -1.0436,11.97664 v 0 q 0,11.131818 2.08724,19.182508 v 0 q -3.08115,1.19269 -6.65922,1.19269 -3.57809,0 -5.66532,-1.63995 -2.08719,-1.63996 -2.08719,-4.77078 0,-3.13083 1.19268,-10.28699 1.19269,-7.156167 1.19269,-11.827557 v 0 q 0,-12.423897 -2.18661,-20.87215 z m 1.29209,-22.462409 v 0 q 3.47868,-1.590258 6.85801,-1.590258 3.37928,0 5.01921,1.739343 1.63997,1.739348 1.63997,5.118647 0,3.379303 -2.23628,5.963472 -2.2363,2.58417 -5.81439,2.58417 v 0 q -7.35498,0 -7.35498,-7.653119 v 0 q 0,-3.379303 1.88846,-6.162255 z m 69.97137,31.705791 v 0 l -0.99389,21.866063 q 0,9.044592 2.78295,17.691632 v 0 q -2.78295,1.19269 -6.36103,1.19269 v 0 q -8.44826,0 -8.44826,-9.44216 v 0 q 0,-4.273818 1.09334,-14.362024 1.0933,-10.088205 1.0933,-12.67238 v 0 q 0,-4.969555 -4.47262,-4.969555 v 0 q -3.27989,0 -7.40466,4.721079 -4.12472,4.721083 -7.05674,10.535467 -2.93206,5.814384 -3.429,9.591251 v 0 q 0.39753,7.752512 1.9878,14.809292 v 0 q -3.18051,1.19269 -6.60951,1.19269 -3.429,0 -5.56591,-1.63995 -2.13687,-1.63996 -2.13687,-4.572 0,-2.93204 0.89451,-10.535466 0.89451,-7.603425 0.89451,-15.107462 0,-7.504036 -2.28605,-17.244372 v 0 q 3.18059,-1.192695 6.75867,-1.192695 3.57806,0 5.81438,2.087216 2.23631,2.087214 2.23631,5.168338 0,3.081131 -0.79516,9.83973 v 0 q 3.77685,-7.056774 9.83975,-12.374202 6.06285,-5.317431 12.12574,-5.317431 v 0 q 10.03848,0 10.03844,10.734249 z m 45.71998,-0.695739 v 0 q -5.26773,-1.590258 -10.43607,-1.590258 -5.16835,0 -9.74035,3.081126 v 0 q -3.57807,7.156166 -3.57807,15.206855 v 0 q 0,4.671387 1.29208,9.094293 1.29209,4.422909 4.27379,4.422909 v 0 q 3.37932,0 9.04464,-9.640949 5.66528,-9.640944 9.14398,-20.573976 z m -14.90868,57.149944 v 0 q 6.36102,0 9.93911,-4.37321 3.5781,-4.37322 3.5781,-11.23122 v 0 q 0,-3.37929 -0.4473,-9.83972 -0.44726,-6.460429 -0.54663,-9.143994 v 0 q -7.05675,12.324504 -12.3245,15.107464 v 0 q -2.68354,1.39147 -5.66529,1.39147 v 0 q -7.45434,0 -11.52938,-5.86408 -4.07504,-5.864074 -4.07504,-14.312327 v 0 q 0,-11.529378 7.20586,-20.22611 7.20586,-8.696727 18.28796,-8.696727 11.08213,0 22.4127,3.876255 v 0 q -2.9817,10.634859 -2.9817,20.872152 v 0 q 0,4.870168 0.69573,12.076032 0.69575,7.205855 0.69575,10.684555 v 0 q 0,12.22511 -7.7525,20.2261 -7.75253,8.001 -19.87826,8.001 v 0 q -7.15618,0 -12.2748,-2.73326 -5.11866,-2.73328 -5.11866,-8.49796 v 0 q 0,-3.57806 2.68355,-6.06285 2.68357,-2.48478 6.36105,-2.48478 v 0 q 0.79515,0 1.98783,0.19878 v 0 q -0.29835,1.29208 -0.29835,2.286 v 0 q 0,3.57808 2.68357,6.16225 2.68355,2.58417 6.36103,2.58417 z m 76.82937,-26.0405 v 0 q 4.07505,1.49087 9.44219,1.49087 5.36712,0 9.44215,-2.087215 v 0 q 4.87019,-8.348863 4.87019,-20.027329 0,-11.678463 -4.07508,-11.678463 v 0 q -5.06894,0 -11.38025,10.237293 -6.31134,10.237291 -8.2992,22.064844 z m 0,-20.375195 v 0 q 10.53548,-20.772759 23.35697,-20.772759 v 0 q 6.75858,0 9.69063,5.516213 2.93202,5.516209 2.93202,13.964463 v 0 q 0,12.125725 -7.15617,22.064838 -7.15614,9.93912 -17.9898,9.93912 v 0 q -6.16224,0 -11.23119,-1.98781 v 0 q 0.19868,13.61659 1.68963,24.94719 v 0 q -3.18051,1.19268 -6.55983,1.19268 -3.37928,0 -5.56587,-2.23628 -2.18664,-2.23632 -2.18664,-6.80832 0,-4.57198 1.19271,-15.60441 1.19268,-11.032425 1.19268,-17.294069 v 0 q 0,-20.673369 -2.1866,-31.904575 v 0 q 3.18053,-1.192694 6.70893,-1.192694 3.52836,0 5.4665,2.037522 1.93812,2.037516 1.93812,6.361034 0,4.323519 -1.29209,11.777857 z m 62.21891,31.308215 q -10.93302,0 -16.10139,-6.41072 -5.16834,-6.41073 -5.16834,-17.890415 0,-11.479684 6.858,-19.927935 6.858,-8.448253 17.59225,-8.448253 v 0 q 22.06485,0 22.06485,24.847801 v 0 q 0,11.62877 -7.15618,19.729152 -7.15616,8.10037 -18.08919,8.10037 z m -7.15619,-41.744289 v 0 q -1.78902,5.764689 -1.78902,11.529377 0,5.76469 0.39755,8.945209 0.39756,3.180518 1.49087,6.361033 v 0 q 2.28604,6.46043 8.99491,6.46043 6.70891,0 8.8458,-3.578085 2.13691,-3.578081 2.13691,-11.032418 v 0 q 0,-21.170326 -10.03848,-21.170326 v 0 q -5.76471,0 -10.03854,2.48478 z m 58.34267,41.744289 q -10.93305,0 -16.10141,-6.41072 -5.16832,-6.41073 -5.16832,-17.890415 0,-11.479684 6.858,-19.927935 6.85798,-8.448253 17.59225,-8.448253 v 0 q 22.06484,0 22.06484,24.847801 v 0 q 0,11.62877 -7.15617,19.729152 -7.15616,8.10037 -18.08919,8.10037 z m -7.1562,-41.744289 v 0 q -1.78902,5.764689 -1.78902,11.529377 0,5.76469 0.39756,8.945209 0.39757,3.180518 1.49088,6.361033 v 0 q 2.28601,6.46043 8.99491,6.46043 6.70889,0 8.8458,-3.578085 2.13692,-3.578081 2.13692,-11.032418 v 0 q 0,-21.170326 -10.03851,-21.170326 v 0 q -5.7647,0 -10.03854,2.48478 z M 700.2573,36.765168 v 0 q 3.1805,-1.192697 6.55982,-1.192697 3.3793,0 5.61559,2.236302 2.23632,2.236302 2.23632,6.062864 0,3.826561 -1.04361,15.306246 -1.04362,11.479681 -1.04362,18.039501 v 0 q 0,16.200765 2.28603,31.705796 v 0 q -3.18054,1.19269 -6.75863,1.19269 v 0 q -7.6531,0 -7.6531,-7.45434 v 0 q 0,-3.578084 1.0933,-14.063856 1.09329,-10.48577 1.09329,-16.846805 v 0 q 0,-21.170327 -2.38539,-34.985701 z"
     style="fill:#216778;fill-opacity:1;stroke-width:0.993913" />
  <path
     id="_6ZykqdeBQQLve3xjaLG10"
     fill="#2c7f82"
     d="m 150.57334,75.777326 c -3.45023,0 -6.45473,1.881753 -8.06946,4.673897 h -10.64295 c -0.96295,-9.352 -4.68651,-17.871404 -10.31285,-24.773971 l 7.96013,-7.976953 c 0.76742,0.206047 1.57269,0.32589 2.40739,0.32589 5.15537,0 9.33097,-4.186113 9.33097,-9.347795 0,-5.163785 -4.1777,-9.349898 -9.33097,-9.349898 -5.15328,0 -9.32888,4.188216 -9.32888,9.349898 0,0.836802 0.11985,1.639964 0.32379,2.409485 l -7.94542,7.962236 C 108.00786,43.327061 99.391743,39.557246 89.932514,38.621626 V 28.064882 c 2.785836,-1.616836 4.663385,-4.629745 4.663385,-8.086284 0,-5.163785 -4.175601,-9.349898 -9.328869,-9.349898 -5.14907,0 -9.32888,4.186113 -9.32888,9.349898 0,3.456539 1.87755,6.469448 4.66549,8.086284 v 10.558846 c -9.38144,0.933518 -17.93238,4.65918 -24.85807,10.308646 l -7.82978,-7.846597 c 0.20395,-0.769522 0.32379,-1.574786 0.32379,-2.409486 0,-5.161682 -4.1777,-9.347795 -9.32887,-9.347795 -5.15117,0 -9.32888,4.186113 -9.32888,9.347795 0,5.161682 4.17771,9.347796 9.32888,9.347796 0.8347,0 1.63786,-0.119844 2.40738,-0.325891 l 7.81085,7.825573 C 43.43533,62.449463 39.66761,71.027737 38.70046,80.449121 H 28.03228 c -1.61263,-2.792144 -4.61923,-4.676001 -8.06947,-4.676001 -5.15116,0 -9.32887,4.184012 -9.32887,9.349898 0,5.163785 4.17771,9.345693 9.32887,9.345693 3.45234,0 6.45473,-1.883856 8.06947,-4.673897 h 10.63033 c 0.90198,9.549637 4.6781,18.247756 10.42429,25.263856 l -7.76881,7.78562 c -0.76952,-0.20814 -1.57268,-0.32799 -2.40738,-0.32799 -5.15117,0 -9.32888,4.18401 -9.32888,9.34569 0,5.16379 4.17771,9.3499 9.32888,9.3499 5.15117,0 9.32887,-4.18611 9.32887,-9.3499 0,-0.83469 -0.11984,-1.63786 -0.32589,-2.41158 l 7.78352,-7.79614 c 6.932,5.67259 15.49976,9.41508 24.90433,10.3507 v 10.46843 c -2.78584,1.61894 -4.66549,4.62975 -4.66549,8.08839 0,5.16168 4.1777,9.34569 9.32887,9.34569 5.151173,0 9.330979,-4.18401 9.330979,-9.34569 0,-3.45864 -1.881754,-6.46945 -4.665488,-8.08839 v -10.46213 c 9.480254,-0.93772 18.115299,-4.72435 25.080939,-10.46843 l 7.89916,7.91808 c -0.20605,0.76742 -0.32379,1.57479 -0.32379,2.40948 0,5.16379 4.17771,9.3499 9.33098,9.3499 5.15327,0 9.32887,-4.18611 9.32887,-9.3499 0,-5.15957 -4.1756,-9.34569 -9.32887,-9.34569 -0.8347,0 -1.63786,0.12195 -2.40949,0.32799 l -7.92229,-7.9349 c 5.68311,-6.98667 9.41508,-15.63222 10.31285,-25.112474 h 10.603 c 1.61474,2.790042 4.62134,4.673898 8.06947,4.673898 5.15537,0 9.33097,-4.181908 9.33097,-9.345693 0.002,-5.170092 -4.1756,-9.356205 -9.32887,-9.356205 z m -31.96879,4.671795 h -14.67978 v 2.249694 c -0.33009,-2.518817 -1.16059,-4.879944 -2.38005,-6.982462 l 10.74387,-10.766996 c 3.28834,4.459441 5.52542,9.745172 6.31596,15.499764 z M 89.930411,66.72178 V 51.497447 c 5.916486,0.866237 11.317859,3.275723 15.827759,6.778518 L 95.001685,69.057678 c -1.793448,-1.087002 -3.77402,-1.892267 -5.889153,-2.333795 z M 80.60154,51.421756 v 15.297922 h 0.82839 c -2.04785,0.426811 -3.96745,1.192127 -5.71254,2.226566 L 64.71071,57.914332 c 4.54985,-3.410285 9.97434,-5.720952 15.89083,-6.492576 z M 58.07306,64.491008 69.10707,75.543946 c -1.29094,2.169799 -2.16769,4.612925 -2.502,7.23056 V 80.451223 H 51.39336 c 0.82418,-5.960639 3.19793,-11.408263 6.6797,-15.960215 z m -6.68601,25.308011 h 15.21802 v -2.205542 c 0.34061,2.661788 1.23839,5.146965 2.56297,7.344096 L 58.18869,105.93584 C 54.63965,101.34605 52.21754,95.831143 51.38705,89.799019 Z m 29.21449,14.021691 v 15.03301 c -5.85341,-0.76112 -11.22535,-3.02763 -15.74786,-6.37484 l 10.97935,-11.00037 c 1.99529,1.16269 4.21555,1.97847 6.59139,2.3401 z m 4.58559,-8.595092 c -5.56116,0 -10.06686,-4.516209 -10.06686,-10.092087 0,-5.56957 4.5078,-10.087882 10.06686,-10.087882 5.563263,0 10.071062,4.518312 10.071062,10.087882 0,5.575878 -4.507799,10.092087 -10.071062,10.092087 z m 4.743281,23.548202 v -14.95101 h -1.814473 c 2.447331,-0.37424 4.734871,-1.22576 6.776416,-2.44312 l 10.720736,10.73756 c -4.48046,3.44182 -9.833473,5.80084 -15.682679,6.65657 z M 112.17085,105.47119 101.47954,94.754654 c 1.25731,-2.127748 2.10673,-4.522517 2.44523,-7.083384 v 2.125646 h 14.68609 c -0.79685,5.834488 -3.08229,11.181194 -6.44001,15.674274 z"
     data-uid="o_en9i1a846_7"
     style="stroke-width:2.10252" />
</svg>
