<?xml version="1.0" encoding="UTF-8" standalone="no"?>
<svg
   xmlns:dc="http://purl.org/dc/elements/1.1/"
   xmlns:cc="http://creativecommons.org/ns#"
   xmlns:rdf="http://www.w3.org/1999/02/22-rdf-syntax-ns#"
   xmlns:svg="http://www.w3.org/2000/svg"
   xmlns="http://www.w3.org/2000/svg"
   xmlns:sodipodi="http://sodipodi.sourceforge.net/DTD/sodipodi-0.dtd"
   xmlns:inkscape="http://www.inkscape.org/namespaces/inkscape"
   width="170.53616"
   height="170.53616"
   style="overflow:visible"
   viewBox="0 0 170.53616 170.53616"
   data-svgdocument=""
   id="_uJ5I_tUFYVnVFEfYSV-d8"
   class="fl-svgdocument"
   x="0"
   y="0"
   overflow="hidden"
   data-bbox="10.993298530578613 169.25086975097656 477.0893933072148 170.5361628927103"
   version="1.1"
   sodipodi:docname="logo_no_text.svg"
   inkscape:version="1.0.1 (3bc2e813f5, 2020-09-07)">
  <metadata
     id="metadata9">
    <rdf:RDF>
      <cc:Work
         rdf:about="">
        <dc:format>image/svg+xml</dc:format>
        <dc:type
           rdf:resource="http://purl.org/dc/dcmitype/StillImage" />
        <dc:title></dc:title>
      </cc:Work>
    </rdf:RDF>
  </metadata>
  <sodipodi:namedview
     pagecolor="#ffffff"
     bordercolor="#666666"
     borderopacity="1"
     objecttolerance="10"
     gridtolerance="10"
     guidetolerance="10"
     inkscape:pageopacity="0"
     inkscape:pageshadow="2"
     inkscape:window-width="1920"
     inkscape:window-height="1001"
     id="namedview7"
     showgrid="false"
     fit-margin-top="0"
     fit-margin-left="0"
     fit-margin-right="0"
     fit-margin-bottom="0"
     inkscape:pagecheckerboard="true"
     inkscape:zoom="0.81054688"
     inkscape:cx="311.81718"
     inkscape:cy="81.147905"
     inkscape:window-x="-9"
     inkscape:window-y="-9"
     inkscape:window-maximized="1"
     inkscape:current-layer="_uJ5I_tUFYVnVFEfYSV-d8"
     inkscape:document-rotation="0" />
  <defs
     id="_6IjzfRJdCBi-VJOKglGk0"
     transform="matrix(0.4133571684360504, 0, 0, 0.4133571684360504, -12.905353546142578, 200.09933471679688)"
     data-uid="o_en9i1a846_4" />
  <path
     id="_9ZgkZTErfvr9fOA1ypRHl"
     fill="#b3dadf"
     data-type="circle"
     data-cx="88.385"
     data-cy="88.385"
     data-r="88.385"
     d="M 85.26808,85.26808 M 0,85.26808 a 85.26808,85.26808 0 1 0 170.53616,0 85.26808,85.26808 0 1 0 -170.53616,0"
     data-uid="o_en9i1a846_5"
     style="stroke-width:0.964735" />
  <path
     id="_6ZykqdeBQQLve3xjaLG10"
     fill="#2c7f82"
     d="m 150.57334,75.777326 c -3.45023,0 -6.45473,1.881753 -8.06946,4.673897 h -10.64295 c -0.96295,-9.352 -4.68651,-17.871404 -10.31285,-24.773971 l 7.96013,-7.976953 c 0.76742,0.206047 1.57269,0.32589 2.40739,0.32589 5.15537,0 9.33097,-4.186113 9.33097,-9.347795 0,-5.163785 -4.1777,-9.349898 -9.33097,-9.349898 -5.15328,0 -9.32888,4.188216 -9.32888,9.349898 0,0.836802 0.11985,1.639964 0.32379,2.409485 l -7.94542,7.962236 C 108.00786,43.327061 99.391743,39.557246 89.932514,38.621626 V 28.064882 c 2.785836,-1.616836 4.663385,-4.629745 4.663385,-8.086284 0,-5.163785 -4.175601,-9.349898 -9.328869,-9.349898 -5.14907,0 -9.32888,4.186113 -9.32888,9.349898 0,3.456539 1.87755,6.469448 4.66549,8.086284 v 10.558846 c -9.38144,0.933518 -17.93238,4.65918 -24.85807,10.308646 l -7.82978,-7.846597 c 0.20395,-0.769522 0.32379,-1.574786 0.32379,-2.409486 0,-5.161682 -4.1777,-9.347795 -9.32887,-9.347795 -5.15117,0 -9.32888,4.186113 -9.32888,9.347795 0,5.161682 4.17771,9.347796 9.32888,9.347796 0.8347,0 1.63786,-0.119844 2.40738,-0.325891 l 7.81085,7.825573 C 43.43533,62.449463 39.66761,71.027737 38.70046,80.449121 H 28.03228 c -1.61263,-2.792144 -4.61923,-4.676001 -8.06947,-4.676001 -5.15116,0 -9.32887,4.184012 -9.32887,9.349898 0,5.163785 4.17771,9.345693 9.32887,9.345693 3.45234,0 6.45473,-1.883856 8.06947,-4.673897 h 10.63033 c 0.90198,9.549637 4.6781,18.247756 10.42429,25.263856 l -7.76881,7.78562 c -0.76952,-0.20814 -1.57268,-0.32799 -2.40738,-0.32799 -5.15117,0 -9.32888,4.18401 -9.32888,9.34569 0,5.16379 4.17771,9.3499 9.32888,9.3499 5.15117,0 9.32887,-4.18611 9.32887,-9.3499 0,-0.83469 -0.11984,-1.63786 -0.32589,-2.41158 l 7.78352,-7.79614 c 6.932,5.67259 15.49976,9.41508 24.90433,10.3507 v 10.46843 c -2.78584,1.61894 -4.66549,4.62975 -4.66549,8.08839 0,5.16168 4.1777,9.34569 9.32887,9.34569 5.151173,0 9.330979,-4.18401 9.330979,-9.34569 0,-3.45864 -1.881754,-6.46945 -4.665488,-8.08839 v -10.46213 c 9.480254,-0.93772 18.115299,-4.72435 25.080939,-10.46843 l 7.89916,7.91808 c -0.20605,0.76742 -0.32379,1.57479 -0.32379,2.40948 0,5.16379 4.17771,9.3499 9.33098,9.3499 5.15327,0 9.32887,-4.18611 9.32887,-9.3499 0,-5.15957 -4.1756,-9.34569 -9.32887,-9.34569 -0.8347,0 -1.63786,0.12195 -2.40949,0.32799 l -7.92229,-7.9349 c 5.68311,-6.98667 9.41508,-15.63222 10.31285,-25.112474 h 10.603 c 1.61474,2.790042 4.62134,4.673898 8.06947,4.673898 5.15537,0 9.33097,-4.181908 9.33097,-9.345693 0.002,-5.170092 -4.1756,-9.356205 -9.32887,-9.356205 z m -31.96879,4.671795 h -14.67978 v 2.249694 c -0.33009,-2.518817 -1.16059,-4.879944 -2.38005,-6.982462 l 10.74387,-10.766996 c 3.28834,4.459441 5.52542,9.745172 6.31596,15.499764 z M 89.930411,66.72178 V 51.497447 c 5.916486,0.866237 11.317859,3.275723 15.827759,6.778518 L 95.001685,69.057678 c -1.793448,-1.087002 -3.77402,-1.892267 -5.889153,-2.333795 z M 80.60154,51.421756 v 15.297922 h 0.82839 c -2.04785,0.426811 -3.96745,1.192127 -5.71254,2.226566 L 64.71071,57.914332 c 4.54985,-3.410285 9.97434,-5.720952 15.89083,-6.492576 z M 58.07306,64.491008 69.10707,75.543946 c -1.29094,2.169799 -2.16769,4.612925 -2.502,7.23056 V 80.451223 H 51.39336 c 0.82418,-5.960639 3.19793,-11.408263 6.6797,-15.960215 z m -6.68601,25.308011 h 15.21802 v -2.205542 c 0.34061,2.661788 1.23839,5.146965 2.56297,7.344096 L 58.18869,105.93584 C 54.63965,101.34605 52.21754,95.831143 51.38705,89.799019 Z m 29.21449,14.021691 v 15.03301 c -5.85341,-0.76112 -11.22535,-3.02763 -15.74786,-6.37484 l 10.97935,-11.00037 c 1.99529,1.16269 4.21555,1.97847 6.59139,2.3401 z m 4.58559,-8.595092 c -5.56116,0 -10.06686,-4.516209 -10.06686,-10.092087 0,-5.56957 4.5078,-10.087882 10.06686,-10.087882 5.563263,0 10.071062,4.518312 10.071062,10.087882 0,5.575878 -4.507799,10.092087 -10.071062,10.092087 z m 4.743281,23.548202 v -14.95101 h -1.814473 c 2.447331,-0.37424 4.734871,-1.22576 6.776416,-2.44312 l 10.720736,10.73756 c -4.48046,3.44182 -9.833473,5.80084 -15.682679,6.65657 z M 112.17085,105.47119 101.47954,94.754654 c 1.25731,-2.127748 2.10673,-4.522517 2.44523,-7.083384 v 2.125646 h 14.68609 c -0.79685,5.834488 -3.08229,11.181194 -6.44001,15.674274 z"
     data-uid="o_en9i1a846_7"
     style="stroke-width:2.10252" />
</svg>
